<svg xmlns="http://www.w3.org/2000/svg" height="24" viewBox="0 -960 960 960" width="24"><path d="M323.692-125.538v-158.769H82.769L242-521.846h-78.308L360-802.77l120 171.5 120-171.5 196.308 280.924H718l159.231 237.539H636.308v158.769h-72.616v-158.769H396.308v158.769h-72.616Zm288.385-195.693h195.769L648.885-558.769h75.884L600-736.923l-96.692 138.077 53 77H478l134.077 200.615Zm-459.923 0h415.692L408.885-558.769h75.884L360-736.923 235.231-558.769H311.5L152.154-321.231Zm0 0H311.5h-76.269 249.538-75.884 158.961-415.692Zm459.923 0H478h78.308-53 221.461-75.884 158.961-195.769Zm-48.385 36.924h72.616-72.616Zm73.655 0Z"/></svg>