<svg xmlns="http://www.w3.org/2000/svg" height="24" viewBox="0 -960 960 960" width="24"><path d="M141.538-224.615v-36.923h194.616Q318-333.461 265.731-385.731 213.461-438 141.538-456.154q16.923-4.231 33.346-6.346t34.346-2.115q113.231 0 192.001 65.288Q480-334.038 480-224.615H141.538Zm375.385 0q0-17.885-2.923-37.808t-10.692-42.154Q536.693-372 599.731-418.308q63.039-46.307 151.039-46.307 17.923 0 34.346 2.115t33.346 6.346Q746.539-438 694.769-385.731 643-333.461 623.846-261.538h194.616v36.923H516.923ZM490.346-339q-11.423-65.116 2.943-122.885 14.365-57.769 48.923-101.846 34.557-44.077 86.077-71.75 51.519-27.673 113.019-31.212-64.923 40.885-100.654 97.154Q604.923-513.27 594-458.423q-32.461 17.153-64.192 52.192-31.731 35.038-39.462 67.231Zm-38.692-56.231Q438-412.923 416.115-431.577q-21.884-18.654-43.346-28.962 2.923-8.923 4.308-22.288 1.384-13.365 1.384-26.096 0-64.462-20.538-121.693-20.539-57.23-57.616-104.769 61.231 24.692 109.808 79.731 48.577 55.038 66.423 135.307-12.615 27.308-18.442 61.404-5.827 34.096-6.442 63.712Z"/></svg>