<svg xmlns="http://www.w3.org/2000/svg" height="24" viewBox="0 -960 960 960" width="24"><path d="M363.846-158.654h232.167q8.461 0 15-5 6.538-5 8.846-13.461l45.103-176.923H295.423L340-177.115q2.308 8.461 8.846 13.461 6.539 5 15 5Zm0 36.923q-20.643 0-37.28-12.616-16.636-12.616-22.028-33.614l-47.154-186.077h445.232l-47.154 186.077q-5.392 20.614-22.028 33.422-16.637 12.808-37.28 12.808H363.846ZM238.654-390.962h484.615q10.385 0 17.5-6.923 7.116-6.923 7.116-17.692v-66.154H214.038v66.154q0 10.769 6.923 17.692t17.693 6.923ZM480-614.808q8.423-76.615 62.827-130.827 54.404-54.212 131.019-62.25-7.538 70.962-56.923 124.115-49.384 53.154-118.269 67.325v97.791h286.154v103.077q0 25.938-17.981 43.738-17.981 17.801-43.558 17.801H238.654q-25.938 0-43.738-17.801-17.801-17.8-17.801-43.738v-103.077h284.616v-97.791q-69.27-14.171-118.27-66.94t-57.307-124.5q76.615 8.038 131.019 62.442Q471.577-691.039 480-614.808Z"/></svg>