<svg xmlns="http://www.w3.org/2000/svg" height="24" viewBox="0 -960 960 960" width="24"><path d="M480.053-489.846q-12.322 0-21.265-8.89-8.942-8.889-8.942-21.211t8.89-21.265q8.889-8.942 21.211-8.942t21.265 8.89q8.942 8.889 8.942 21.211t-8.89 21.265q-8.889 8.942-21.211 8.942Zm0-160q-12.322 0-21.265-8.89-8.942-8.889-8.942-21.211t8.89-21.265q8.889-8.942 21.211-8.942t21.265 8.89q8.942 8.889 8.942 21.211t-8.89 21.265q-8.889 8.942-21.211 8.942Zm0-160q-12.322 0-21.265-8.89-8.942-8.889-8.942-21.211t8.89-21.265q8.889-8.942 21.211-8.942t21.265 8.89q8.942 8.889 8.942 21.211t-8.89 21.265q-8.889 8.942-21.211 8.942Zm120 400q-12.322 0-21.265-8.89-8.942-8.889-8.942-21.211t8.89-21.265q8.889-8.942 21.211-8.942t21.265 8.89q8.942 8.889 8.942 21.211t-8.89 21.265q-8.889 8.942-21.211 8.942Zm113-114q-12.322 0-21.265-8.89-8.942-8.889-8.942-21.211t8.89-21.265q8.889-8.942 21.211-8.942t21.265 8.89q8.942 8.889 8.942 21.211t-8.89 21.265q-8.889 8.942-21.211 8.942Zm113-112q-12.322 0-21.265-8.89-8.942-8.889-8.942-21.211t8.89-21.265q8.889-8.942 21.211-8.942t21.265 8.89q8.942 8.889 8.942 21.211t-8.89 21.265q-8.889 8.942-21.211 8.942Zm-466 226q-12.322 0-21.265-8.89-8.942-8.889-8.942-21.211t8.89-21.265q8.889-8.942 21.211-8.942t21.265 8.89q8.942 8.889 8.942 21.211t-8.89 21.265q-8.889 8.942-21.211 8.942Zm-113-114q-12.322 0-21.265-8.89-8.942-8.889-8.942-21.211t8.89-21.265q8.889-8.942 21.211-8.942t21.265 8.89q8.942 8.889 8.942 21.211t-8.89 21.265q-8.889 8.942-21.211 8.942Zm-113-112q-12.322 0-21.265-8.89-8.942-8.889-8.942-21.211t8.89-21.265q8.889-8.942 21.211-8.942t21.265 8.89q8.942 8.889 8.942 21.211t-8.89 21.265q-8.889 8.942-21.211 8.942Zm327.678 534.115v-160h-160v-36.923h356.923v36.923h-160v160h-36.923Z"/></svg>