<svg xmlns="http://www.w3.org/2000/svg" height="24" viewBox="0 -960 960 960" width="24"><path d="M488.692-212.308q8.923-1 13.962-6.154 5.038-5.155 5.038-12.432 0-8.491-5.754-13.145-5.755-4.653-14.707-3.653-41 3-91.616-25.577Q345-301.846 333-368.846q-2-9.462-6.654-14.154t-11.808-4.692q-7.846 0-13.134 5.884-5.289 5.885-3.558 17.577Q313.308-280.923 374.769-245q61.462 35.923 113.923 32.692Zm-8.833 89.231q-118.205 0-197.494-81.806Q203.077-286.688 203.077-408q0-84.923 69.25-189.346T480-824.616q138.423 122.847 207.673 227.27 69.25 104.423 69.25 189.346 0 121.312-79.43 203.117-79.43 81.806-197.634 81.806ZM480-160q104 0 172-70.5T720-408q0-73-60.5-165T480-774Q361-665 300.5-573T240-408q0 107 68 177.5T480-160Zm0-313.846Z"/></svg>