<svg xmlns="http://www.w3.org/2000/svg" height="24" viewBox="0 -960 960 960" width="24"><path d="M480-202.462q0-81.282-61.821-143.102-61.82-61.821-143.102-61.821 0 81.282 61.82 143.103 61.821 61.82 143.103 61.82Zm.157-206.307q23.147 0 37.999-15.002 14.851-15.001 14.851-38.252v-4.285q6.532 5.231 13.883 7.539 7.352 2.307 16.97 2.307 23.224 0 38.913-15.749 15.689-15.75 15.689-38.969 0-16.974-8.022-30.051-8.021-13.077-22.132-19.077 14.111-6 22.132-19.077 8.022-13.077 8.022-30.181 0-22.928-15.686-38.758-15.686-15.83-38.814-15.83-9.577 0-16.939 2.308-7.361 2.307-13.764 7.538v-6q0-23.176-15.135-38.126-15.134-14.951-38.281-14.951t-37.999 15.002q-14.851 15.001-14.851 38.252v5.823q-6.532-5.231-13.883-7.538-7.352-2.308-16.97-2.308-23.224 0-38.913 15.75-15.689 15.749-15.689 38.969 0 16.973 8.022 30.05 8.021 13.077 22.132 19.077-14.111 6-22.132 19.077-8.022 13.077-8.022 30.181 0 22.928 15.686 38.758 15.686 15.83 38.814 15.83 9.577 0 16.939-2.307 7.361-2.308 13.764-7.539v4.462q0 23.176 15.135 38.126 15.134 14.951 38.281 14.951Zm-.214-72q-32.981 0-56.231-23.232t-23.25-56.149q0-33.116 23.306-56.406 23.307-23.29 56.289-23.29 32.981 0 56.231 23.212 23.25 23.213 23.25 56.443 0 33.037-23.306 56.229-23.307 23.193-56.289 23.193ZM480-202.462q81.282 0 143.103-61.82 61.82-61.821 61.82-143.103-81.282 0-143.102 61.821Q480-283.744 480-202.462Zm-292.477 76.308q-25.768 0-43.569-17.8-17.8-17.801-17.8-43.569v-584.954q0-25.768 17.8-43.569 17.801-17.8 43.569-17.8h584.954q25.768 0 43.569 17.8 17.8 17.801 17.8 43.569v584.954q0 25.768-17.8 43.569-17.801 17.8-43.569 17.8H187.523Zm.169-36.923h584.616q9.231 0 16.923-7.692 7.692-7.692 7.692-16.923v-584.616q0-9.231-7.692-16.923-7.692-7.692-16.923-7.692H187.692q-9.231 0-16.923 7.692-7.692 7.692-7.692 16.923v584.616q0 9.231 7.692 16.923 7.692 7.692 16.923 7.692Zm-24.615 0v-633.846 633.846Z"/></svg>